ffmpeg started on 2016-12-08 at 17:45:34
Report written to "Output/x264/results/ffmpeg/sintelveryslow5000k.log"
Command line:
Tools/ffmpeg/ffmpeg -benchmark -y -i Input/y4m/sintel.y4m -c:v libx264 -preset veryslow -b:v 5000k -an Output/x264/encoded/sintelveryslow5000k.mkv
ffmpeg version N-82227-gdb23fde Copyright (c) 2000-2016 the FFmpeg developers
  built with gcc 5.4.0 (Ubuntu 5.4.0-6ubuntu1~16.04.2) 20160609
  configuration: --prefix=/home/jaroslav/ffmpeg_build --pkg-config-flags=--static --extra-cflags=-I/home/jaroslav/ffmpeg_build/include --extra-ldflags=-L/home/jaroslav/ffmpeg_build/lib --bindir=/home/jaroslav/bin --enable-gpl --enable-libass --enable-libfdk-aac --enable-libfreetype --enable-libmp3lame --enable-libopus --enable-libtheora --enable-libvorbis --enable-libvpx --enable-libx264 --enable-libx265 --enable-nvenc --enable-libmfx --enable-libxvid --enable-libgsm --enable-libopencore-amrnb --enable-version3 --enable-nonfree
  libavutil      55. 35.100 / 55. 35.100
  libavcodec     57. 66.101 / 57. 66.101
  libavformat    57. 57.100 / 57. 57.100
  libavdevice    57.  2.100 / 57.  2.100
  libavfilter     6. 66.100 /  6. 66.100
  libswscale      4.  3.100 /  4.  3.100
  libswresample   2.  4.100 /  2.  4.100
  libpostproc    54.  2.100 / 54.  2.100
Input #0, yuv4mpegpipe, from 'Input/y4m/sintel.y4m':
  Duration: 00:00:20.83, start: 0.000000, bitrate: 2057307 kb/s
    Stream #0:0: Video: rawvideo (I420 / 0x30323449), yuv420p(progressive), 4096x1744, SAR 1:1 DAR 256:109, 24 fps, 24 tbr, 24 tbn, 24 tbc
[libx264 @ 0x29541c0] using SAR=1/1
[libx264 @ 0x29541c0] DPB size (16 frames, 446464 mbs) > level limit (6 frames, 184320 mbs)
[libx264 @ 0x29541c0] using cpu capabilities: MMX2 SSE2Fast SSSE3 SSE4.2 AVX FMA3 AVX2 LZCNT BMI2
[libx264 @ 0x29541c0] profile High, level 5.2
[libx264 @ 0x29541c0] 264 - core 148 - H.264/MPEG-4 AVC codec - Copyleft 2003-2016 - http://www.videolan.org/x264.html - options: cabac=1 ref=16 deblock=1:0:0 analyse=0x3:0x133 me=umh subme=10 psy=1 psy_rd=1.00:0.00 mixed_ref=1 me_range=24 chroma_me=1 trellis=2 8x8dct=1 cqm=0 deadzone=21,11 fast_pskip=1 chroma_qp_offset=-2 threads=6 lookahead_threads=1 sliced_threads=0 nr=0 decimate=1 interlaced=0 bluray_compat=0 constrained_intra=0 bframes=8 b_pyramid=2 b_adapt=2 b_bias=0 direct=3 weightb=1 open_gop=0 weightp=2 keyint=250 keyint_min=24 scenecut=40 intra_refresh=0 rc_lookahead=60 rc=abr mbtree=1 bitrate=5000 ratetol=1.0 qcomp=0.60 qpmin=0 qpmax=69 qpstep=4 ip_ratio=1.40 aq=1:1.00
Output #0, matroska, to 'Output/x264/encoded/sintelveryslow5000k.mkv':
  Metadata:
    encoder         : Lavf57.57.100
    Stream #0:0: Video: h264 (libx264) (H264 / 0x34363248), yuv420p, 4096x1744 [SAR 1:1 DAR 256:109], q=-1--1, 5000 kb/s, 24 fps, 1k tbn, 24 tbc
    Metadata:
      encoder         : Lavc57.66.101 libx264
    Side data:
      cpb: bitrate max/min/avg: 0/0/5000000 buffer size: 0 vbv_delay: -1
Stream mapping:
  Stream #0:0 -> #0:0 (rawvideo (native) -> h264 (libx264))
Press [q] to stop, [?] for help
frame=   10 fps=0.0 q=0.0 size=       0kB time=00:00:00.00 bitrate=N/A speed=   0x    frame=   18 fps= 18 q=0.0 size=       0kB time=00:00:00.00 bitrate=N/A speed=   0x    frame=   25 fps= 15 q=0.0 size=       0kB time=00:00:00.00 bitrate=N/A speed=   0x    frame=   33 fps= 15 q=0.0 size=       0kB time=00:00:00.00 bitrate=N/A speed=   0x    frame=   37 fps= 13 q=0.0 size=       0kB time=00:00:00.00 bitrate=N/A speed=   0x    frame=   38 fps=6.3 q=0.0 size=       0kB time=00:00:00.00 bitrate=N/A speed=   0x    frame=   39 fps=4.4 q=0.0 size=       0kB time=00:00:00.00 bitrate=N/A speed=   0x    frame=   40 fps=4.1 q=0.0 size=       0kB time=00:00:00.00 bitrate=N/A speed=   0x    frame=   48 fps=4.7 q=0.0 size=       0kB time=00:00:00.00 bitrate=N/A speed=   0x    frame=   57 fps=5.3 q=0.0 size=       0kB time=00:00:00.00 bitrate=N/A speed=   0x    frame=   65 fps=5.7 q=0.0 size=       0kB time=00:00:00.00 bitrate=N/A speed=   0x    frame=   72 fps=2.5 q=0.0 size=       0kB time=00:00:00.00 bitrate=N/A speed=   0x    frame=   76 fps=2.5 q=30.0 size=       1kB time=-00:00:00.08 bitrate=N/A speed=N/A    frame=   78 fps=2.5 q=39.0 size=       1kB time=00:00:00.00 bitrate=5888.0kbits/s speed=3.18e-05x    frame=   79 fps=2.4 q=35.0 size=       1kB time=00:00:00.04 bitrate= 136.9kbits/s speed=0.00133x    frame=   81 fps=2.4 q=42.0 size=       1kB time=00:00:00.12 bitrate=  46.7kbits/s speed=0.00374x    frame=   82 fps=2.4 q=45.0 size=       1kB time=00:00:00.16 bitrate=  35.0kbits/s speed=0.00484x    frame=   83 fps=2.3 q=48.0 size=       1kB time=00:00:00.20 bitrate=  28.2kbits/s speed=0.00584x    frame=   86 fps=2.3 q=48.0 size=       1kB time=00:00:00.33 bitrate=  17.6kbits/s speed=0.00908x    frame=   88 fps=2.3 q=48.0 size=       1kB time=00:00:00.41 bitrate=  14.1kbits/s speed=0.0111x    frame=   89 fps=2.2 q=47.0 size=       1kB time=00:00:00.45 bitrate=  12.8kbits/s speed=0.0116x    frame=   90 fps=2.2 q=47.0 size=       1kB time=00:00:00.50 bitrate=  11.8kbits/s speed=0.0124x    frame=   91 fps=2.2 q=47.0 size=       1kB time=00:00:00.54 bitrate=  10.8kbits/s speed=0.0132x    frame=   92 fps=2.2 q=47.0 size=       1kB time=00:00:00.58 bitrate=  10.1kbits/s speed=0.0139x    frame=   93 fps=2.1 q=48.0 size=       1kB time=00:00:00.62 bitrate=   9.4kbits/s speed=0.0144x    frame=   94 fps=2.1 q=47.0 size=       1kB time=00:00:00.66 bitrate=   8.8kbits/s speed=0.0152x    frame=   96 fps=2.1 q=47.0 size=       1kB time=00:00:00.75 bitrate=   7.8kbits/s speed=0.0162x    frame=   97 fps=2.1 q=47.0 size=       1kB time=00:00:00.79 bitrate=   7.4kbits/s speed=0.0168x    frame=   98 fps=2.0 q=47.0 size=       1kB time=00:00:00.83 bitrate=   7.1kbits/s speed=0.0172x    frame=   99 fps=2.0 q=47.0 size=       1kB time=00:00:00.87 bitrate=   6.7kbits/s speed=0.0177x    frame=  100 fps=2.0 q=47.0 size=       1kB time=00:00:00.91 bitrate=   6.4kbits/s speed=0.0181x    frame=  101 fps=2.0 q=47.0 size=       1kB time=00:00:00.95 bitrate=   6.1kbits/s speed=0.0186x    frame=  102 fps=1.9 q=47.0 size=       1kB time=00:00:01.00 bitrate=   5.9kbits/s speed=0.0191x    frame=  103 fps=1.9 q=47.0 size=       1kB time=00:00:01.04 bitrate=   5.6kbits/s speed=0.0197x    frame=  104 fps=1.9 q=47.0 size=       1kB time=00:00:01.08 bitrate=   5.4kbits/s speed=0.0197x    frame=  105 fps=1.9 q=47.0 size=       1kB time=00:00:01.12 bitrate=   5.2kbits/s speed=0.0203x    frame=  107 fps=1.8 q=46.0 size=       1kB time=00:00:01.20 bitrate=   4.9kbits/s speed=0.0208x    frame=  108 fps=1.8 q=46.0 size=       1kB time=00:00:01.25 bitrate=   4.7kbits/s speed=0.0213x    frame=  109 fps=1.8 q=46.0 size=       1kB time=00:00:01.29 bitrate=   4.6kbits/s speed=0.0218x    frame=  110 fps=1.8 q=46.0 size=       1kB time=00:00:01.33 bitrate=   4.4kbits/s speed=0.0219x    frame=  111 fps=1.8 q=46.0 size=       1kB time=00:00:01.37 bitrate=   4.3kbits/s speed=0.0221x    frame=  112 fps=1.8 q=46.0 size=       1kB time=00:00:01.41 bitrate=   4.2kbits/s speed=0.0224x    frame=  113 fps=1.8 q=46.0 size=       1kB time=00:00:01.45 bitrate=   4.0kbits/s speed=0.0229x    frame=  114 fps=1.8 q=46.0 size=       1kB time=00:00:01.50 bitrate=   3.9kbits/s speed=0.0231x    frame=  115 fps=1.7 q=46.0 size=       1kB time=00:00:01.54 bitrate=   3.8kbits/s speed=0.0234x    frame=  116 fps=1.7 q=46.0 size=       1kB time=00:00:01.58 bitrate=   3.7kbits/s speed=0.0236x    frame=  117 fps=1.7 q=46.0 size=       1kB time=00:00:01.62 bitrate=   3.6kbits/s speed=0.024x    frame=  119 fps=1.7 q=45.0 size=       1kB time=00:00:01.70 bitrate=   3.4kbits/s speed=0.0248x    frame=  121 fps=1.7 q=45.0 size=       1kB time=00:00:01.79 bitrate=   3.3kbits/s speed=0.0257x    frame=  122 fps=1.7 q=45.0 size=       1kB time=00:00:01.83 bitrate=   3.2kbits/s speed=0.0258x    frame=  123 fps=1.7 q=45.0 size=       1kB time=00:00:01.87 bitrate=   3.1kbits/s speed=0.0259x    frame=  124 fps=1.7 q=45.0 size=       1kB time=00:00:01.91 bitrate=   3.1kbits/s speed=0.0261x    frame=  126 fps=1.7 q=45.0 size=       1kB time=00:00:02.00 bitrate=   2.9kbits/s speed=0.0269x    frame=  127 fps=1.7 q=45.0 size=       1kB time=00:00:02.04 bitrate=   2.9kbits/s speed=0.0271x    frame=  128 fps=1.7 q=45.0 size=       1kB time=00:00:02.08 bitrate=   2.8kbits/s speed=0.0269x    frame=  129 fps=1.6 q=45.0 size=       1kB time=00:00:02.12 bitrate=   2.8kbits/s speed=0.0271x    frame=  130 fps=1.6 q=45.0 size=       1kB time=00:00:02.16 bitrate=   2.7kbits/s speed=0.0273x    frame=  131 fps=1.6 q=45.0 size=       1kB time=00:00:02.20 bitrate=   2.7kbits/s speed=0.0275x    frame=  132 fps=1.6 q=45.0 size=       1kB time=00:00:02.25 bitrate=   2.6kbits/s speed=0.0275x    frame=  133 fps=1.6 q=45.0 size=       1kB time=00:00:02.29 bitrate=   2.6kbits/s speed=0.0278x    frame=  134 fps=1.6 q=45.0 size=       1kB time=00:00:02.33 bitrate=   2.5kbits/s speed=0.0276x    frame=  135 fps=1.6 q=45.0 size=       1kB time=00:00:02.37 bitrate=   2.5kbits/s speed=0.0278x    frame=  136 fps=1.6 q=45.0 size=       1kB time=00:00:02.41 bitrate=   2.4kbits/s speed=0.028x    frame=  137 fps=1.6 q=45.0 size=       1kB time=00:00:02.45 bitrate=   2.4kbits/s speed=0.0281x    frame=  138 fps=1.6 q=45.0 size=       1kB time=00:00:02.50 bitrate=   2.4kbits/s speed=0.0281x    frame=  139 fps=1.5 q=45.0 size=       1kB time=00:00:02.54 bitrate=   2.3kbits/s speed=0.0283x    frame=  140 fps=1.5 q=45.0 size=       1kB time=00:00:02.58 bitrate=   2.3kbits/s speed=0.0284x    frame=  141 fps=1.5 q=45.0 size=       1kB time=00:00:02.62 bitrate=   2.2kbits/s speed=0.0286x    frame=  142 fps=1.5 q=45.0 size=       1kB time=00:00:02.66 bitrate=   2.2kbits/s speed=0.0281x    frame=  144 fps=1.5 q=45.0 size=       1kB time=00:00:02.75 bitrate=   2.1kbits/s speed=0.0285x    frame=  145 fps=1.5 q=44.0 size=       1kB time=00:00:02.79 bitrate=   2.1kbits/s speed=0.0287x    frame=  146 fps=1.5 q=44.0 size=       1kB time=00:00:02.83 bitrate=   2.1kbits/s speed=0.0288x    frame=  147 fps=1.5 q=44.0 size=       1kB time=00:00:02.87 bitrate=   2.0kbits/s speed=0.029x    frame=  148 fps=1.5 q=44.0 size=       1kB time=00:00:02.91 bitrate=   2.0kbits/s speed=0.0287x    frame=  149 fps=1.5 q=44.0 size=       1kB time=00:00:02.95 bitrate=   2.0kbits/s speed=0.0288x    frame=  150 fps=1.4 q=44.0 size=       1kB time=00:00:03.00 bitrate=   2.0kbits/s speed=0.0289x    frame=  151 fps=1.4 q=44.0 size=       1kB time=00:00:03.04 bitrate=   1.9kbits/s speed=0.0291x    frame=  152 fps=1.4 q=44.0 size=       1kB time=00:00:03.08 bitrate=   1.9kbits/s speed=0.0291x    frame=  153 fps=1.4 q=44.0 size=       1kB time=00:00:03.12 bitrate=   1.9kbits/s speed=0.0291x    frame=  154 fps=1.4 q=44.0 size=       1kB time=00:00:03.16 bitrate=   1.9kbits/s speed=0.0291x    frame=  155 fps=1.4 q=44.0 size=       1kB time=00:00:03.20 bitrate=   1.8kbits/s speed=0.0292x    frame=  156 fps=1.4 q=44.0 size=       1kB time=00:00:03.25 bitrate=   1.8kbits/s speed=0.0292x    frame=  157 fps=1.4 q=44.0 size=       1kB time=00:00:03.29 bitrate=   1.8kbits/s speed=0.0292x    frame=  158 fps=1.4 q=44.0 size=       1kB time=00:00:03.33 bitrate=   1.8kbits/s speed=0.0294x    frame=  159 fps=1.4 q=44.0 size=       1kB time=00:00:03.37 bitrate=   1.7kbits/s speed=0.0295x    frame=  160 fps=1.4 q=44.0 size=       1kB time=00:00:03.41 bitrate=   1.7kbits/s speed=0.0294x    frame=  161 fps=1.4 q=44.0 size=       1kB time=00:00:03.45 bitrate=   1.7kbits/s speed=0.0294x    frame=  162 fps=1.4 q=44.0 size=       1kB time=00:00:03.50 bitrate=   1.7kbits/s speed=0.0295x    frame=  163 fps=1.4 q=44.0 size=       1kB time=00:00:03.54 bitrate=   1.7kbits/s speed=0.0296x    frame=  164 fps=1.4 q=44.0 size=       1kB time=00:00:03.58 bitrate=   1.6kbits/s speed=0.0297x    frame=  165 fps=1.4 q=44.0 size=       1kB time=00:00:03.62 bitrate=   1.6kbits/s speed=0.0298x    frame=  166 fps=1.3 q=44.0 size=       1kB time=00:00:03.66 bitrate=   1.6kbits/s speed=0.0297x    frame=  167 fps=1.3 q=44.0 size=       1kB time=00:00:03.70 bitrate=   1.6kbits/s speed=0.0299x    frame=  169 fps=1.3 q=44.0 size=       1kB time=00:00:03.79 bitrate=   1.6kbits/s speed=0.0302x    frame=  170 fps=1.3 q=44.0 size=       1kB time=00:00:03.83 bitrate=   1.5kbits/s speed=0.0303x    frame=  171 fps=1.3 q=44.0 size=       1kB time=00:00:03.87 bitrate=   1.5kbits/s speed=0.0302x    frame=  172 fps=1.3 q=44.0 size=       1kB time=00:00:03.91 bitrate=   1.5kbits/s speed=0.03x    frame=  174 fps=1.3 q=43.0 size=       1kB time=00:00:04.00 bitrate=   1.5kbits/s speed=0.0305x    frame=  176 fps=1.3 q=43.0 size=       1kB time=00:00:04.08 bitrate=   1.4kbits/s speed=0.0309x    frame=  177 fps=1.3 q=43.0 size=       1kB time=00:00:04.12 bitrate=   1.4kbits/s speed=0.031x    frame=  178 fps=1.3 q=43.0 size=       1kB time=00:00:04.16 bitrate=   1.4kbits/s speed=0.0305x    frame=  180 fps=1.3 q=43.0 size=       1kB time=00:00:04.25 bitrate=   1.4kbits/s speed=0.0309x    frame=  182 fps=1.3 q=43.0 size=       1kB time=00:00:04.33 bitrate=   1.4kbits/s speed=0.0311x    frame=  184 fps=1.3 q=43.0 size=       1kB time=00:00:04.41 bitrate=   1.3kbits/s speed=0.0314x    frame=  185 fps=1.3 q=43.0 size=       1kB time=00:00:04.45 bitrate=   1.3kbits/s speed=0.0314x    frame=  186 fps=1.3 q=43.0 size=       1kB time=00:00:04.50 bitrate=   1.3kbits/s speed=0.0316x    frame=  188 fps=1.3 q=43.0 size=       1kB time=00:00:04.58 bitrate=   1.3kbits/s speed=0.0316x    frame=  189 fps=1.3 q=43.0 size=       1kB time=00:00:04.62 bitrate=   1.3kbits/s speed=0.0318x    frame=  190 fps=1.3 q=43.0 size=       1kB time=00:00:04.66 bitrate=   1.3kbits/s speed=0.032x    frame=  192 fps=1.3 q=43.0 size=       1kB time=00:00:04.75 bitrate=   1.2kbits/s speed=0.0316x    frame=  193 fps=1.3 q=43.0 size=       1kB time=00:00:04.79 bitrate=   1.2kbits/s speed=0.0318x    frame=  194 fps=1.3 q=43.0 size=       1kB time=00:00:04.83 bitrate=   1.2kbits/s speed=0.032x    frame=  196 fps=1.3 q=43.0 size=    3142kB time=00:00:04.91 bitrate=5233.5kbits/s speed=0.0322x    frame=  197 fps=1.3 q=43.0 size=    3142kB time=00:00:04.95 bitrate=5190.3kbits/s speed=0.0323x    frame=  198 fps=1.3 q=43.0 size=    3142kB time=00:00:05.00 bitrate=5146.7kbits/s speed=0.0323x    frame=  199 fps=1.3 q=43.0 size=    3142kB time=00:00:05.04 bitrate=5103.8kbits/s speed=0.0323x    frame=  200 fps=1.3 q=43.0 size=    3142kB time=00:00:05.08 bitrate=5062.7kbits/s speed=0.0324x    frame=  201 fps=1.3 q=43.0 size=    3142kB time=00:00:05.12 bitrate=5021.2kbits/s speed=0.0325x    frame=  202 fps=1.3 q=43.0 size=    3142kB time=00:00:05.16 bitrate=4980.4kbits/s speed=0.0326x    frame=  203 fps=1.3 q=43.0 size=    3142kB time=00:00:05.20 bitrate=4941.2kbits/s speed=0.0327x    frame=  204 fps=1.3 q=43.0 size=    3142kB time=00:00:05.25 bitrate=4901.6kbits/s speed=0.0326x    frame=  205 fps=1.3 q=43.0 size=    3142kB time=00:00:05.29 bitrate=4862.8kbits/s speed=0.0327x    frame=  206 fps=1.3 q=43.0 size=    3142kB time=00:00:05.33 bitrate=4825.4kbits/s speed=0.0328x    frame=  207 fps=1.3 q=43.0 size=    3142kB time=00:00:05.37 bitrate=4787.7kbits/s speed=0.0329x    frame=  208 fps=1.3 q=43.0 size=    3142kB time=00:00:05.41 bitrate=4750.6kbits/s speed=0.0329x    frame=  209 fps=1.3 q=43.0 size=    3142kB time=00:00:05.45 bitrate=4714.9kbits/s speed=0.033x    frame=  210 fps=1.3 q=43.0 size=    3142kB time=00:00:05.50 bitrate=4678.9kbits/s speed=0.0331x    frame=  211 fps=1.3 q=43.0 size=    3142kB time=00:00:05.54 bitrate=4643.4kbits/s speed=0.0332x    frame=  212 fps=1.3 q=43.0 size=    3142kB time=00:00:05.58 bitrate=4609.3kbits/s speed=0.0333x    frame=  213 fps=1.3 q=43.0 size=    3142kB time=00:00:05.62 bitrate=4574.9kbits/s speed=0.0334x    frame=  214 fps=1.3 q=43.0 size=    3142kB time=00:00:05.66 bitrate=4541.0kbits/s speed=0.0335x    frame=  215 fps=1.3 q=43.0 size=    3142kB time=00:00:05.70 bitrate=4508.4kbits/s speed=0.0336x    frame=  216 fps=1.3 q=43.0 size=    3142kB time=00:00:05.75 bitrate=4475.5kbits/s speed=0.0337x    frame=  218 fps=1.3 q=43.0 size=    3142kB time=00:00:05.83 bitrate=4411.8kbits/s speed=0.0339x    frame=  219 fps=1.3 q=43.0 size=    3142kB time=00:00:05.87 bitrate=4380.3kbits/s speed=0.0339x    frame=  220 fps=1.3 q=43.0 size=    3142kB time=00:00:05.91 bitrate=4349.2kbits/s speed=0.0341x    frame=  221 fps=1.3 q=43.0 size=    3142kB time=00:00:05.95 bitrate=4319.3kbits/s speed=0.0341x    frame=  222 fps=1.3 q=43.0 size=    3142kB time=00:00:06.00 bitrate=4289.0kbits/s speed=0.0341x    frame=  223 fps=1.3 q=43.0 size=    3142kB time=00:00:06.04 bitrate=4259.2kbits/s speed=0.0342x    frame=  225 fps=1.3 q=43.0 size=    3142kB time=00:00:06.12 bitrate=4201.5kbits/s speed=0.0344x    frame=  226 fps=1.3 q=43.0 size=    3142kB time=00:00:06.16 bitrate=4172.9kbits/s speed=0.0345x    frame=  227 fps=1.3 q=43.0 size=    3142kB time=00:00:06.20 bitrate=4145.4kbits/s speed=0.0344x    frame=  228 fps=1.3 q=43.0 size=    3142kB time=00:00:06.25 bitrate=4117.5kbits/s speed=0.0346x    frame=  229 fps=1.3 q=43.0 size=    3142kB time=00:00:06.29 bitrate=4090.0kbits/s speed=0.0347x    frame=  231 fps=1.3 q=43.0 size=    3142kB time=00:00:06.37 bitrate=4036.8kbits/s speed=0.035x    frame=  233 fps=1.2 q=43.0 size=    3142kB time=00:00:06.45 bitrate=3984.9kbits/s speed=0.0345x    frame=  235 fps=1.2 q=42.0 size=    3142kB time=00:00:06.54 bitrate=3933.8kbits/s speed=0.0347x    frame=  236 fps=1.2 q=42.0 size=    3142kB time=00:00:06.58 bitrate=3909.3kbits/s speed=0.0348x    frame=  237 fps=1.2 q=42.0 size=    3142kB time=00:00:06.62 bitrate=3884.5kbits/s speed=0.0349x    frame=  238 fps=1.2 q=42.0 size=    3142kB time=00:00:06.66 bitrate=3860.0kbits/s speed=0.035x    frame=  239 fps=1.2 q=42.0 size=    3142kB time=00:00:06.70 bitrate=3836.4kbits/s speed=0.0348x    frame=  240 fps=1.2 q=42.0 size=    3142kB time=00:00:06.75 bitrate=3812.6kbits/s speed=0.0349x    frame=  241 fps=1.2 q=42.0 size=    3142kB time=00:00:06.79 bitrate=3789.0kbits/s speed=0.035x    frame=  242 fps=1.2 q=42.0 size=    3142kB time=00:00:06.83 bitrate=3766.2kbits/s speed=0.035x    frame=  244 fps=1.2 q=42.0 size=    3142kB time=00:00:06.91 bitrate=3720.5kbits/s speed=0.0353x    frame=  245 fps=1.2 q=42.0 size=    3142kB time=00:00:06.95 bitrate=3698.6kbits/s speed=0.0352x    frame=  246 fps=1.2 q=42.0 size=    3142kB time=00:00:07.00 bitrate=3676.4kbits/s speed=0.0351x    frame=  247 fps=1.2 q=42.0 size=    3142kB time=00:00:07.04 bitrate=3654.5kbits/s speed=0.035x    frame=  249 fps=1.2 q=42.0 size=    3142kB time=00:00:07.12 bitrate=3611.9kbits/s speed=0.0353x    frame=  251 fps=1.2 q=42.0 size=    3142kB time=00:00:07.20 bitrate=3570.3kbits/s speed=0.0356x    frame=  252 fps=1.2 q=42.0 size=    3142kB time=00:00:07.25 bitrate=3549.7kbits/s speed=0.0355x    frame=  253 fps=1.2 q=42.0 size=    3142kB time=00:00:07.29 bitrate=3529.2kbits/s speed=0.0353x    frame=  255 fps=1.2 q=42.0 size=    3142kB time=00:00:07.37 bitrate=3489.5kbits/s speed=0.0354x    frame=  256 fps=1.2 q=42.0 size=    3142kB time=00:00:07.41 bitrate=3469.7kbits/s speed=0.0355x    frame=  257 fps=1.2 q=42.0 size=    3142kB time=00:00:07.45 bitrate=3450.7kbits/s speed=0.0355x    frame=  259 fps=1.2 q=42.0 size=    3142kB time=00:00:07.54 bitrate=3412.2kbits/s speed=0.0357x    frame=  260 fps=1.2 q=42.0 size=    3142kB time=00:00:07.58 bitrate=3393.8kbits/s speed=0.0353x    frame=  262 fps=1.2 q=42.0 size=    3142kB time=00:00:07.66 bitrate=3356.6kbits/s speed=0.0356x    frame=  265 fps=1.2 q=42.0 size=    3142kB time=00:00:07.79 bitrate=3302.8kbits/s speed=0.036x    frame=  266 fps=1.2 q=42.0 size=    3142kB time=00:00:07.83 bitrate=3285.5kbits/s speed=0.036x    frame=  267 fps=1.2 q=42.0 size=    3142kB time=00:00:07.87 bitrate=3268.0kbits/s speed=0.0357x    frame=  268 fps=1.2 q=42.0 size=    3142kB time=00:00:07.91 bitrate=3250.6kbits/s speed=0.0358x    frame=  271 fps=1.2 q=42.0 size=    3142kB time=00:00:08.04 bitrate=3200.1kbits/s speed=0.0362x    frame=  272 fps=1.2 q=42.0 size=    3142kB time=00:00:08.08 bitrate=3183.9kbits/s speed=0.0363x    frame=  273 fps=1.2 q=42.0 size=    3142kB time=00:00:08.12 bitrate=3167.4kbits/s speed=0.0361x    frame=  274 fps=1.2 q=42.0 size=    3142kB time=00:00:08.16 bitrate=3151.1kbits/s speed=0.0361x    frame=  275 fps=1.2 q=42.0 size=    3142kB time=00:00:08.20 bitrate=3135.4kbits/s speed=0.0362x    frame=  277 fps=1.2 q=42.0 size=    3142kB time=00:00:08.29 bitrate=3103.6kbits/s speed=0.0363x    frame=  278 fps=1.2 q=42.0 size=    3142kB time=00:00:08.33 bitrate=3088.4kbits/s speed=0.0363x    frame=  279 fps=1.2 q=42.0 size=    3142kB time=00:00:08.37 bitrate=3072.9kbits/s speed=0.0364x    frame=  280 fps=1.2 q=42.0 size=    3142kB time=00:00:08.41 bitrate=3057.6kbits/s speed=0.0365x    frame=  281 fps=1.2 q=42.0 size=    3142kB time=00:00:08.45 bitrate=3042.7kbits/s speed=0.0365x    frame=  282 fps=1.2 q=41.0 size=    3142kB time=00:00:08.50 bitrate=3027.7kbits/s speed=0.0366x    frame=  284 fps=1.2 q=41.0 size=    3142kB time=00:00:08.58 bitrate=2998.4kbits/s speed=0.0366x    frame=  287 fps=1.2 q=41.0 size=    3142kB time=00:00:08.70 bitrate=2955.4kbits/s speed=0.0369x    frame=  289 fps=1.2 q=41.0 size=    3142kB time=00:00:08.79 bitrate=2927.2kbits/s speed=0.0369x    frame=  292 fps=1.2 q=41.0 size=    3142kB time=00:00:08.91 bitrate=2886.1kbits/s speed=0.0371x    frame=  294 fps=1.2 q=41.0 size=    3142kB time=00:00:09.00 bitrate=2859.5kbits/s speed=0.0372x    frame=  295 fps=1.2 q=41.0 size=    3142kB time=00:00:09.04 bitrate=2846.2kbits/s speed=0.0372x    frame=  296 fps=1.2 q=41.0 size=    3142kB time=00:00:09.08 bitrate=2833.4kbits/s speed=0.0373x    frame=  298 fps=1.2 q=41.0 size=    3142kB time=00:00:09.16 bitrate=2807.4kbits/s speed=0.0373x    frame=  299 fps=1.2 q=41.0 size=    3142kB time=00:00:09.20 bitrate=2794.9kbits/s speed=0.0374x    frame=  301 fps=1.2 q=41.0 size=    3142kB time=00:00:09.29 bitrate=2769.7kbits/s speed=0.0376x    frame=  302 fps=1.2 q=41.0 size=    3142kB time=00:00:09.33 bitrate=2757.5kbits/s speed=0.0376x    frame=  303 fps=1.2 q=41.0 size=    3142kB time=00:00:09.37 bitrate=2745.2kbits/s speed=0.0376x    frame=  305 fps=1.2 q=41.0 size=    3142kB time=00:00:09.45 bitrate=2721.1kbits/s speed=0.0377x    frame=  309 fps=1.2 q=41.0 size=    3142kB time=00:00:09.62 bitrate=2673.9kbits/s speed=0.0379x    frame=  310 fps=1.2 q=41.0 size=    3142kB time=00:00:09.66 bitrate=2662.2kbits/s speed=0.038x    frame=  311 fps=1.2 q=41.0 size=    3142kB time=00:00:09.70 bitrate=2651.0kbits/s speed=0.038x    frame=  312 fps=1.2 q=41.0 size=    3142kB time=00:00:09.75 bitrate=2639.6kbits/s speed=0.038x    frame=  314 fps=1.2 q=41.0 size=    3142kB time=00:00:09.83 bitrate=2617.3kbits/s speed=0.0382x    frame=  317 fps=1.2 q=41.0 size=    3142kB time=00:00:09.95 bitrate=2584.5kbits/s speed=0.0386x    frame=  318 fps=1.2 q=41.0 size=    5747kB time=00:00:10.00 bitrate=4707.7kbits/s speed=0.0386x    frame=  320 fps=1.2 q=41.0 size=    5747kB time=00:00:10.08 bitrate=4668.9kbits/s speed=0.0388x    frame=  321 fps=1.2 q=38.0 size=    5747kB time=00:00:10.12 bitrate=4649.6kbits/s speed=0.0387x    frame=  322 fps=1.2 q=41.0 size=    5747kB time=00:00:10.16 bitrate=4630.4kbits/s speed=0.0388x    frame=  324 fps=1.2 q=41.0 size=    5747kB time=00:00:10.25 bitrate=4592.9kbits/s speed=0.0389x    frame=  326 fps=1.2 q=40.0 size=    5891kB time=00:00:10.33 bitrate=4670.1kbits/s speed=0.0391x    frame=  332 fps=1.3 q=40.0 size=    5891kB time=00:00:10.58 bitrate=4559.8kbits/s speed=0.0399x    frame=  334 fps=1.3 q=40.0 size=    5891kB time=00:00:10.66 bitrate=4523.9kbits/s speed=0.0401x    frame=  336 fps=1.3 q=38.0 size=    5891kB time=00:00:10.75 bitrate=4488.9kbits/s speed=0.0404x    frame=  339 fps=1.3 q=40.0 size=    5891kB time=00:00:10.87 bitrate=4437.3kbits/s speed=0.0407x    frame=  340 fps=1.3 q=40.0 size=    5891kB time=00:00:10.91 bitrate=4420.3kbits/s speed=0.0408x    frame=  343 fps=1.3 q=40.0 size=    5891kB time=00:00:11.04 bitrate=4370.2kbits/s speed=0.041x    frame=  345 fps=1.3 q=40.0 size=    5891kB time=00:00:11.12 bitrate=4337.6kbits/s speed=0.0412x    frame=  346 fps=1.3 q=40.0 size=    5891kB time=00:00:11.16 bitrate=4321.3kbits/s speed=0.0411x    frame=  347 fps=1.3 q=40.0 size=    5891kB time=00:00:11.20 bitrate=4305.5kbits/s speed=0.0412x    frame=  349 fps=1.3 q=40.0 size=    5891kB time=00:00:11.29 bitrate=4273.5kbits/s speed=0.0414x    frame=  351 fps=1.3 q=40.0 size=    5891kB time=00:00:11.37 bitrate=4242.3kbits/s speed=0.0416x    frame=  353 fps=1.3 q=40.0 size=    5891kB time=00:00:11.45 bitrate=4211.6kbits/s speed=0.0415x    frame=  354 fps=1.3 q=40.0 size=    5891kB time=00:00:11.50 bitrate=4196.2kbits/s speed=0.0416x    frame=  356 fps=1.3 q=40.0 size=    5891kB time=00:00:11.58 bitrate=4166.1kbits/s speed=0.0418x    frame=  358 fps=1.3 q=40.0 size=    5891kB time=00:00:11.66 bitrate=4136.1kbits/s speed=0.042x    frame=  359 fps=1.3 q=40.0 size=    5891kB time=00:00:11.70 bitrate=4121.7kbits/s speed=0.042x    frame=  360 fps=1.3 q=40.0 size=    5891kB time=00:00:11.75 bitrate=4106.9kbits/s speed=0.0418x    frame=  363 fps=1.3 q=39.0 size=    5891kB time=00:00:11.87 bitrate=4063.7kbits/s speed=0.0421x    frame=  364 fps=1.3 q=40.0 size=    5891kB time=00:00:11.91 bitrate=4049.4kbits/s speed=0.0422x    frame=  366 fps=1.3 q=39.0 size=    5891kB time=00:00:12.00 bitrate=4021.4kbits/s speed=0.0423x    frame=  368 fps=1.3 q=39.0 size=    5891kB time=00:00:12.08 bitrate=3993.7kbits/s speed=0.0424x    frame=  369 fps=1.3 q=39.0 size=    5891kB time=00:00:12.12 bitrate=3979.9kbits/s speed=0.0424x    frame=  372 fps=1.3 q=39.0 size=    5891kB time=00:00:12.25 bitrate=3939.3kbits/s speed=0.0427x    frame=  373 fps=1.3 q=39.0 size=    5891kB time=00:00:12.29 bitrate=3925.8kbits/s speed=0.0427x    frame=  376 fps=1.3 q=39.0 size=    5891kB time=00:00:12.41 bitrate=3886.3kbits/s speed=0.0429x    frame=  377 fps=1.3 q=39.0 size=    5891kB time=00:00:12.45 bitrate=3873.5kbits/s speed=0.043x    frame=  379 fps=1.3 q=39.0 size=    5891kB time=00:00:12.54 bitrate=3847.6kbits/s speed=0.0431x    frame=  381 fps=1.3 q=39.0 size=    5891kB time=00:00:12.62 bitrate=3822.3kbits/s speed=0.0433x    frame=  382 fps=1.3 q=39.0 size=    5891kB time=00:00:12.66 bitrate=3809.6kbits/s speed=0.0434x    frame=  383 fps=1.3 q=39.0 size=    5891kB time=00:00:12.70 bitrate=3797.3kbits/s speed=0.0434x    frame=  387 fps=1.3 q=38.0 size=    5891kB time=00:00:12.87 bitrate=3748.1kbits/s speed=0.0438x    frame=  388 fps=1.3 q=38.0 size=    5891kB time=00:00:12.91 bitrate=3735.9kbits/s speed=0.0437x    frame=  391 fps=1.3 q=38.0 size=    5891kB time=00:00:13.04 bitrate=3700.1kbits/s speed=0.044x    frame=  393 fps=1.3 q=38.0 size=    5891kB time=00:00:13.12 bitrate=3676.7kbits/s speed=0.0442x    frame=  394 fps=1.3 q=38.0 size=    5891kB time=00:00:13.16 bitrate=3665.0kbits/s speed=0.044x    frame=  399 fps=1.3 q=38.0 size=    5891kB time=00:00:13.37 bitrate=3608.0kbits/s speed=0.0444x    frame=  400 fps=1.3 q=38.0 size=    5891kB time=00:00:13.41 bitrate=3596.7kbits/s speed=0.0444x    frame=  405 fps=1.3 q=38.0 size=    5891kB time=00:00:13.62 bitrate=3541.8kbits/s speed=0.0449x    frame=  406 fps=1.3 q=38.0 size=    5891kB time=00:00:13.66 bitrate=3530.9kbits/s speed=0.0449x    frame=  408 fps=1.3 q=38.0 size=    5891kB time=00:00:13.75 bitrate=3509.6kbits/s speed=0.045x    frame=  410 fps=1.3 q=38.0 size=    5891kB time=00:00:13.83 bitrate=3488.5kbits/s speed=0.0452x    frame=  413 fps=1.3 q=37.0 size=    5891kB time=00:00:13.95 bitrate=3457.3kbits/s speed=0.0455x    frame=  414 fps=1.3 q=37.0 size=    5891kB time=00:00:14.00 bitrate=3446.9kbits/s speed=0.0453x    frame=  419 fps=1.4 q=37.0 size=    5891kB time=00:00:14.20 bitrate=3396.5kbits/s speed=0.0458x    frame=  420 fps=1.3 q=37.0 size=    5891kB time=00:00:14.25 bitrate=3386.5kbits/s speed=0.0457x    frame=  425 fps=1.4 q=37.0 size=    5891kB time=00:00:14.45 bitrate=3337.7kbits/s speed=0.0463x    frame=  426 fps=1.4 q=37.0 size=    5891kB time=00:00:14.50 bitrate=3328.1kbits/s speed=0.046x    frame=  431 fps=1.4 q=37.0 size=    5891kB time=00:00:14.70 bitrate=3281.0kbits/s speed=0.0465x    frame=  432 fps=1.4 q=36.0 size=    5891kB time=00:00:14.75 bitrate=3271.7kbits/s speed=0.0464x    frame=  435 fps=1.4 q=36.0 size=    5891kB time=00:00:14.87 bitrate=3244.2kbits/s speed=0.0467x    frame=  437 fps=1.4 q=36.0 size=    5891kB time=00:00:14.95 bitrate=3226.2kbits/s speed=0.0469x    frame=  438 fps=1.4 q=36.0 size=    5891kB time=00:00:15.00 bitrate=3217.1kbits/s speed=0.047x    frame=  439 fps=1.4 q=36.0 size=    5891kB time=00:00:15.04 bitrate=3208.2kbits/s speed=0.0464x    frame=  441 fps=1.4 q=36.0 size=    5891kB time=00:00:15.12 bitrate=3190.6kbits/s speed=0.0466x    frame=  443 fps=1.4 q=36.0 size=    5891kB time=00:00:15.20 bitrate=3173.2kbits/s speed=0.0467x    frame=  445 fps=1.4 q=36.0 size=    7731kB time=00:00:15.29 bitrate=4141.4kbits/s speed=0.0467x    frame=  446 fps=1.4 q=36.0 size=    7731kB time=00:00:15.33 bitrate=4130.4kbits/s speed=0.0466x    frame=  447 fps=1.4 q=36.0 size=    7731kB time=00:00:15.37 bitrate=4119.1kbits/s speed=0.0466x    frame=  449 fps=1.4 q=36.0 size=    7731kB time=00:00:15.45 bitrate=4097.0kbits/s speed=0.0468x    frame=  450 fps=1.4 q=36.0 size=    7731kB time=00:00:15.50 bitrate=4085.9kbits/s speed=0.0468x    frame=  451 fps=1.4 q=36.0 size=    7731kB time=00:00:15.54 bitrate=4074.8kbits/s speed=0.0468x    frame=  452 fps=1.4 q=36.0 size=    7731kB time=00:00:15.58 bitrate=4064.1kbits/s speed=0.0467x    frame=  454 fps=1.4 q=36.0 size=    7731kB time=00:00:15.66 bitrate=4042.3kbits/s speed=0.0469x    frame=  455 fps=1.4 q=36.0 size=    7731kB time=00:00:15.70 bitrate=4031.8kbits/s speed=0.0467x    frame=  456 fps=1.4 q=36.0 size=    7731kB time=00:00:15.75 bitrate=4021.0kbits/s speed=0.0468x    frame=  459 fps=1.4 q=36.0 size=    7731kB time=00:00:15.87 bitrate=3989.4kbits/s speed=0.047x    frame=  460 fps=1.4 q=36.0 size=    7731kB time=00:00:15.91 bitrate=3978.8kbits/s speed=0.047x    frame=  461 fps=1.4 q=36.0 size=    7731kB time=00:00:15.95 bitrate=3968.6kbits/s speed=0.047x    frame=  462 fps=1.4 q=36.0 size=    7731kB time=00:00:16.00 bitrate=3958.2kbits/s speed=0.047x    frame=  464 fps=1.4 q=36.0 size=    7731kB time=00:00:16.08 bitrate=3937.8kbits/s speed=0.047x    frame=  466 fps=1.4 q=36.0 size=    7731kB time=00:00:16.16 bitrate=3917.3kbits/s speed=0.0471x    frame=  468 fps=1.4 q=36.0 size=    7731kB time=00:00:16.25 bitrate=3897.3kbits/s speed=0.047x    frame=  469 fps=1.4 q=36.0 size=    7731kB time=00:00:16.29 bitrate=3887.3kbits/s speed=0.047x    frame=  471 fps=1.4 q=36.0 size=    7731kB time=00:00:16.37 bitrate=3867.6kbits/s speed=0.0471x    frame=  473 fps=1.4 q=36.0 size=    7731kB time=00:00:16.45 bitrate=3848.1kbits/s speed=0.0472x    frame=  474 fps=1.4 q=36.0 size=    7731kB time=00:00:16.50 bitrate=3838.3kbits/s speed=0.0472x    frame=  475 fps=1.4 q=36.0 size=    7731kB time=00:00:16.54 bitrate=3828.5kbits/s speed=0.0472x    frame=  476 fps=1.3 q=36.0 size=    7731kB time=00:00:16.58 bitrate=3819.1kbits/s speed=0.047x    frame=  478 fps=1.4 q=36.0 size=    7731kB time=00:00:16.66 bitrate=3799.8kbits/s speed=0.0471x    frame=  482 fps=1.3 q=36.0 size=    7731kB time=00:00:16.83 bitrate=3762.3kbits/s speed=0.0471x    frame=  484 fps=1.4 q=36.0 size=    7731kB time=00:00:16.91 bitrate=3743.7kbits/s speed=0.0473x    frame=  486 fps=1.4 q=36.0 size=    7731kB time=00:00:17.00 bitrate=3725.4kbits/s speed=0.0474x    frame=  488 fps=1.4 q=36.0 size=    7731kB time=00:00:17.08 bitrate=3707.3kbits/s speed=0.0473x    frame=  489 fps=1.4 q=36.0 size=    7731kB time=00:00:17.12 bitrate=3698.2kbits/s speed=0.0473x    frame=  491 fps=1.4 q=36.0 size=    7731kB time=00:00:17.20 bitrate=3680.3kbits/s speed=0.0475x    frame=  494 fps=1.3 q=36.0 size=    7731kB time=00:00:17.33 bitrate=3653.8kbits/s speed=0.0471x    frame=  496 fps=1.3 q=36.0 size=    7731kB time=00:00:17.41 bitrate=3636.2kbits/s speed=0.0472x    frame=  498 fps=1.3 q=36.0 size=    7731kB time=00:00:17.50 bitrate=3618.9kbits/s speed=0.0474x    frame=  500 fps=1.3 q=36.0 size=    7731kB time=00:00:17.58 bitrate=3601.9kbits/s speed=0.0473x    frame=  500 fps=1.2 q=-1.0 Lsize=   10611kB time=00:00:20.70 bitrate=4197.6kbits/s speed=0.05x    
video:10607kB audio:0kB subtitle:0kB other streams:0kB global headers:0kB muxing overhead: 0.043107%
bench: utime=1522.132s
bench: maxrss=2793396kB
[libx264 @ 0x29541c0] frame I:3     Avg QP:30.90  size:117221
[libx264 @ 0x29541c0] frame P:268   Avg QP:38.06  size: 28113
[libx264 @ 0x29541c0] frame B:229   Avg QP:38.43  size: 12990
[libx264 @ 0x29541c0] consecutive B-frames: 36.2%  7.6% 18.0% 17.6% 11.0%  9.6%  0.0%  0.0%  0.0%
[libx264 @ 0x29541c0] mb I  I16..4: 21.0% 76.4%  2.6%
[libx264 @ 0x29541c0] mb P  I16..4: 13.1% 29.5%  0.1%  P16..4: 18.3%  0.8%  0.7%  0.0%  0.0%    skip:37.5%
[libx264 @ 0x29541c0] mb B  I16..4:  0.7%  1.1%  0.0%  B16..8: 26.8%  1.2%  0.1%  direct: 0.2%  skip:69.8%  L0:40.9% L1:58.1% BI: 0.9%
[libx264 @ 0x29541c0] final ratefactor: 33.39
[libx264 @ 0x29541c0] 8x8 transform intra:69.1% inter:90.8%
[libx264 @ 0x29541c0] direct mvs  spatial:99.1% temporal:0.9%
[libx264 @ 0x29541c0] coded y,uvDC,uvAC intra: 8.5% 12.0% 0.3% inter: 1.5% 1.2% 0.0%
[libx264 @ 0x29541c0] i16 v,h,dc,p: 25% 30%  7% 38%
[libx264 @ 0x29541c0] i8 v,h,dc,ddl,ddr,vr,hd,vl,hu: 22% 11% 55%  2%  2%  2%  2%  1%  2%
[libx264 @ 0x29541c0] i4 v,h,dc,ddl,ddr,vr,hd,vl,hu: 16% 17% 10%  7% 10% 10% 13%  6% 11%
[libx264 @ 0x29541c0] i8c dc,h,v,p: 86%  9%  4%  1%
[libx264 @ 0x29541c0] Weighted P-Frames: Y:1.5% UV:1.1%
[libx264 @ 0x29541c0] ref P L0: 57.3% 11.4% 12.7%  4.2%  2.9%  2.4%  2.2%  1.2%  1.1%  1.0%  0.8%  0.7%  0.6%  0.6%  0.5%  0.4%
[libx264 @ 0x29541c0] ref B L0: 86.3%  6.0%  2.8%  1.1%  0.9%  0.7%  0.5%  0.3%  0.3%  0.3%  0.2%  0.2%  0.2%  0.1%  0.1%
[libx264 @ 0x29541c0] ref B L1: 98.3%  1.7%
[libx264 @ 0x29541c0] kb/s:4170.45
